<?xml version="1.0" standalone="no"?><!DOCTYPE svg PUBLIC "-//W3C//DTD SVG 1.1//EN" "http://www.w3.org/Graphics/SVG/1.1/DTD/svg11.dtd" ><svg xmlns="http://www.w3.org/2000/svg"><metadata></metadata><defs><font id="Founder:FZDaBiaoSong-B06S	Regular" horiz-adv-x="256"><font-face font-family="FZDaBiaoSong-B06S" font-weight="400" font-stretch="normal" units-per-em="256" panose-1="2 1 6 1 3 1 1 1 1 1" ascent="218" descent="-38" x-height="1" bbox="2 -34 251 212" underline-thickness="12" underline-position="-25" unicode-range="U+0030-ff1f" /><missing-glyph horiz-adv-x="256" d="M85 4 l86 0 l0 171 l-86 0 l0 -171 Z" /><glyph glyph-name="" unicode="0" d="M11 80 q2 -78 53 -82 q51 5 53 82 q-2 78 -53 83 q-51 -5 -53 -83 ZM44 115 q-1 41 20 39 q20 1 20 -45 l0 -57 q1 -49 -20 -46 q-21 -2 -20 42 l0 67 Z" /><glyph glyph-name="" unicode="1" d="M83 163 l-14 0 q-21 -23 -51 -38 l4 -7 q14 4 30 13 l0 -112 q0 -9 -9 -10 l-16 0 l0 -9 l82 0 l0 9 l-17 0 q-9 0 -9 11 l0 143 Z" /><glyph glyph-name="" unicode="2" d="M8 0 l100 0 l5 46 l-8 0 q-2 -20 -19 -19 l-48 0 q12 14 34 34 q37 31 35 57 q-3 42 -45 45 q-43 -2 -51 -50 l10 0 q6 27 29 29 q25 -1 26 -33 q7 -23 -56 -87 q-8 -8 -12 -13 l0 -9 Z" /><glyph glyph-name="" unicode="3" d="M43 78 q2 0 4 1 q2 1 4 1 q25 -2 26 -37 q-1 -33 -22 -35 q-10 0 -18 12 q-8 11 -16 11 q-13 -1 -14 -13 q3 -18 37 -20 q60 3 64 58 q-3 41 -39 43 l-1 0 q27 16 27 36 q-3 26 -34 28 q-33 -1 -46 -35 l8 -3 q9 18 24 18 q17 -1 18 -19 q1 -17 -26 -39 l4 -7 Z" /><glyph glyph-name="" unicode="4" d="M64 -2 l31 0 l0 42 l22 0 l0 17 l-22 0 l0 106 l-13 0 l-74 -112 l0 -11 l56 0 l0 -42 ZM64 57 l-40 0 l39 61 l1 0 l0 -61 Z" /><glyph glyph-name="" unicode="5" d="M22 78 l7 -4 q10 5 20 5 q30 -2 31 -38 q-2 -32 -24 -34 q-8 0 -15 11 q-7 12 -16 12 q-12 0 -13 -13 q2 -18 35 -19 q59 3 63 55 q-3 50 -56 53 q-11 0 -21 -3 l1 31 l61 0 l4 30 l-8 0 q-1 -5 -9 -5 l-57 0 l-3 -81 Z" /><glyph glyph-name="" unicode="6" d="M98 163 q-83 -19 -87 -100 q3 -63 55 -65 q48 2 51 52 q-2 47 -43 49 q-14 0 -27 -9 q9 48 56 65 l-5 8 ZM84 47 q2 -42 -19 -41 q-21 0 -21 48 q0 9 1 20 q0 3 0 4 q10 9 21 9 q20 1 18 -40 Z" /><glyph glyph-name="" unicode="7" d="M32 -2 l26 0 l58 151 l0 10 l-103 0 l-4 -44 l9 0 q2 11 6 13 q3 3 15 3 l51 0 l-58 -133 Z" /><glyph glyph-name="" unicode="8" d="M112 125 q-4 35 -49 38 q-44 -3 -48 -43 q-1 -24 28 -43 q-31 -13 -31 -38 q4 -38 51 -41 q48 3 53 46 q0 27 -34 45 q31 14 30 36 ZM91 31 q-1 -23 -26 -25 q-26 1 -26 34 q-1 21 13 31 q43 -20 39 -40 ZM87 124 q0 -19 -13 -29 q-35 16 -34 37 q1 21 22 22 q24 -1 25 -30 Z" /><glyph glyph-name="" unicode="9" d="M30 -2 q82 19 87 97 q-2 65 -55 68 q-48 -4 -52 -54 q3 -45 44 -48 q13 0 26 9 q-11 -51 -56 -65 l6 -7 ZM43 114 q-1 41 19 40 q22 0 22 -46 q0 -11 -2 -27 q-12 -8 -21 -8 q-20 -1 -18 41 Z" /><glyph glyph-name="" unicode="a" d="M113 59 l12 -30 q5 -9 2 -14 q-3 -5 -14 -5 l-9 0 l0 -10 l83 0 l0 10 q-18 0 -26 23 l-51 130 l-38 0 l3 -7 l-44 -122 q-8 -25 -25 -24 l-4 0 l0 -10 l68 0 l0 10 l-3 0 q-17 0 -21 4 q-4 3 1 15 l10 30 l56 0 ZM108 73 l-46 0 l22 60 l24 -60 Z" /><glyph glyph-name="" unicode="t" d="M111 146 l30 0 q16 0 20 -5 q4 -4 8 -25 l10 0 l-4 48 l-9 0 q-4 -6 -12 -5 l-122 0 q-4 0 -7 1 q-2 1 -5 4 l-8 0 l-5 -48 l11 0 q4 21 8 25 q4 5 19 5 l31 0 l0 -117 q1 -19 -20 -19 l-9 0 l0 -10 l92 0 l0 10 l-6 0 q-24 -1 -22 19 l0 117 Z" /><glyph glyph-name="" unicode="&#xff0c;" d="M63 45 q-18 -3 -21 -21 l0 -4 q2 -19 22 -22 q5 -3 0 -15 q-3 -7 -11 -15 q2 -2 3 -2 q25 13 31 46 l0 6 q-3 25 -22 27 l-2 0 Z" /><glyph glyph-name="" unicode="&#xff1f;" d="M110 153 q-1 16 -17 28 q-11 7 -27 8 l-7 0 q-32 -3 -40 -32 l0 -3 q2 -14 16 -16 l4 0 q9 0 13 10 q4 10 -1 18 q-2 3 -8 6 q-2 1 -3 1 q4 8 14 8 l3 0 q16 -3 18 -26 q0 -16 -9 -40 q-10 -24 -10 -40 l0 -9 l6 0 q0 11 5 20 q2 7 8 14 q9 12 20 22 q2 2 5 6 q3 4 5 6 q3 7 5 14 l0 5 ZM78 23 q-1 14 -17 16 l-2 0 q-15 -2 -16 -17 l0 -1 q2 -13 16 -16 l3 0 q14 2 16 16 l0 2 Z" /><glyph glyph-name="" unicode="&#x4e0d;" d="M236 176 q5 0 6 2 q0 2 -3 6 q-20 17 -29 19 q-3 0 -13 -13 q-7 -9 -8 -9 l-173 0 q-3 0 -1 -2 q1 -3 4 -3 l98 0 q-27 -86 -98 -141 q-9 -7 -8 -8 q1 0 12 5 q50 26 85 64 l0 -108 q0 -13 7 -12 q25 0 25 19 l0 123 q0 2 3 5 q2 3 2 4 q0 2 -5 4 q-4 1 -4 2 q2 4 11 16 q2 3 7 6 q4 3 5 5 q2 3 -20 13 q-5 2 -8 3 l105 0 ZM162 108 q-21 4 -6 -3 q7 -4 9 -6 q31 -30 32 -48 q4 -14 10 -17 q21 -6 28 17 q2 19 -19 35 q-22 14 -54 22 Z" /><glyph glyph-name="" unicode="&#x4e8e;" d="M224 182 q6 0 7 2 q1 2 -3 5 q-19 18 -24 17 q-4 0 -12 -12 q-5 -8 -7 -8 l-148 0 q-4 0 -3 -2 q1 -2 5 -2 l76 0 l0 -69 l-99 0 q-5 0 -3 -2 q2 -3 7 -3 l95 0 l0 -87 q0 -13 -6 -16 q-6 -3 -26 -4 q-17 1 -8 -1 q6 -2 8 -3 q12 -6 14 -16 q1 -7 8 -8 q41 -1 42 34 l0 102 l92 0 q7 0 8 2 q1 2 -4 6 q-19 16 -24 16 q-3 -1 -10 -13 q-3 -6 -4 -6 l-58 0 l0 53 q-2 17 17 15 l60 0 Z" /><glyph glyph-name="" unicode="&#x4f4d;" d="M129 201 q18 -14 13 -29 q-2 -5 -1 -8 q4 -18 23 -14 q17 7 12 25 q-12 25 -47 26 ZM167 -1 q7 13 21 45 q18 43 23 52 q1 2 5 6 q18 13 -26 19 q-12 2 -13 -8 q-2 -12 -6 -41 q-6 -42 -11 -73 l-75 0 q-4 0 -4 -2 q1 -2 6 -2 l148 0 q8 0 10 1 q2 1 -1 4 q-1 1 -3 3 q-20 17 -25 17 q-2 0 -17 -21 l-32 0 ZM100 114 q23 -37 15 -68 q-1 -5 -1 -7 q0 -28 23 -15 q19 16 10 40 q-25 48 -47 50 ZM92 143 q-3 0 -2 -2 q1 -2 5 -2 l138 0 q8 0 9 2 q0 2 -6 8 q-1 1 -3 3 q-16 13 -21 13 q-2 0 -10 -12 q-6 -10 -7 -10 l-103 0 ZM77 125 q0 1 2 4 q4 4 3 6 q-2 3 -10 6 q1 1 2 5 q7 15 18 34 q1 1 4 4 q19 10 -26 20 q-6 2 -8 0 q-1 -1 -3 -11 q-8 -59 -43 -114 q-4 -9 9 1 q10 9 22 24 l0 -112 q-1 -16 9 -13 q23 2 21 14 l0 132 Z" /><glyph glyph-name="" unicode="&#x4f60;" d="M139 154 q1 2 5 9 q9 17 15 27 q2 4 7 6 q3 2 3 3 q3 4 -27 11 q-11 3 -12 1 q-3 -1 -4 -12 q-12 -61 -35 -96 q-3 -5 -2 -6 q1 -1 5 3 q25 25 42 49 l70 0 q0 -6 -5 -21 q-2 -5 -1 -5 q0 0 4 3 q13 11 22 12 q8 0 17 -1 q6 0 7 2 q0 15 -35 32 q-3 0 -9 -10 q-5 -7 -6 -7 l-61 0 ZM183 122 q0 1 1 2 q9 7 -20 10 q-14 3 -12 -8 l0 -108 q0 -10 -6 -13 q-4 -2 -27 -3 q-6 -1 -6 -1 q0 -1 6 -1 q15 -3 19 -18 q2 -8 9 -8 q23 2 29 9 q7 6 7 24 l0 115 ZM76 126 q0 1 2 3 q7 8 -11 11 q15 35 28 52 q3 4 3 5 q1 5 -29 12 q-1 0 -2 0 q-11 5 -10 -8 q-13 -75 -44 -123 q-3 -5 -2 -6 q1 0 5 3 q15 13 30 31 l0 -124 q-1 -10 12 -7 q12 2 15 3 q3 2 3 8 l0 140 ZM142 81 q2 3 5 5 q3 3 3 5 q0 3 -24 9 q-9 2 -10 0 q-2 -2 -3 -13 q-4 -35 -22 -68 q-3 -6 -2 -6 q1 -1 6 4 q19 17 43 58 q3 5 4 6 ZM230 69 q-28 25 -42 25 q0 -1 3 -6 q6 -8 10 -16 q7 -14 10 -35 q3 -16 7 -20 q8 -6 17 0 q9 6 11 18 q2 17 -16 34 Z" /><glyph glyph-name="" unicode="&#x51b2;" d="M169 190 q0 2 3 5 q3 3 2 4 q-8 4 -26 6 q-9 1 -8 -10 l0 -49 l-25 0 q-9 4 -20 6 q-7 2 -8 0 q-1 -1 -1 -8 l0 -94 q-1 -9 7 -8 q21 -1 21 9 l0 16 l26 0 l0 -90 q-1 -8 8 -7 q22 -2 21 10 l0 87 l26 0 l0 -16 q0 -6 8 -6 q25 -1 23 10 l0 76 q0 3 4 6 q3 2 3 5 q-15 16 -34 18 q-2 -1 -5 -7 q-5 -7 -7 -7 l-18 0 l0 44 ZM19 178 q15 -9 15 -30 q3 -23 25 -10 q15 14 2 32 q-8 10 -38 12 q-6 1 -7 0 q-1 -1 3 -4 ZM79 158 q2 7 1 6 q-1 0 -5 -9 q-19 -51 -30 -69 q-7 -10 -25 -10 q-7 -1 -7 -2 q19 -6 22 -19 q2 -6 -4 -34 q-1 -3 -1 -3 q-7 -23 17 -24 q21 4 18 28 q0 1 -1 5 q-7 31 -5 45 q3 15 20 86 ZM169 142 l26 0 l0 -70 l-26 0 l0 70 ZM114 132 q-2 11 14 10 l12 0 l0 -70 l-26 0 l0 60 Z" /><glyph glyph-name="" unicode="&#x523a;" d="M97 188 q0 4 4 8 q2 2 2 4 q0 6 -26 8 q-9 1 -8 -13 l0 -27 l-57 0 q-5 -3 6 -5 l51 0 l0 -28 l-17 0 q-10 5 -17 7 q-9 5 -8 -11 l0 -48 q-1 -20 8 -16 q21 0 18 10 l0 35 q0 14 1 16 q1 3 7 3 l8 0 l0 -27 q-13 -59 -56 -101 q-6 -5 -6 -6 q1 -1 8 3 q24 13 54 44 l0 -55 q-1 -18 10 -14 q13 2 15 4 q3 2 3 7 l0 77 q16 -10 19 -31 q2 -11 7 -13 q13 -5 21 9 q4 14 -8 24 q-14 11 -39 14 l0 21 q9 -2 12 -9 q1 -5 4 -6 q10 -4 19 2 q9 5 9 15 l0 32 q0 3 3 6 q2 3 2 4 q-8 10 -26 16 q-2 0 -7 -8 q-3 -4 -4 -4 l-12 0 l0 28 l57 0 l0 -122 q-2 -18 13 -13 q11 2 13 5 q3 2 3 10 l0 122 q0 1 2 3 q2 3 2 5 q-2 4 -23 6 q-11 2 -10 -9 q-16 16 -27 17 q-5 0 -14 -19 l-16 0 l0 20 ZM230 188 q0 2 3 5 q2 3 2 5 q1 4 -25 7 q-12 3 -10 -13 l0 -177 q0 -8 -5 -10 q-4 -2 -23 -1 q-14 0 -13 -1 q-1 -1 14 -3 q10 -3 15 -15 q3 -10 10 -10 q32 -2 32 32 l0 181 ZM115 131 l0 -30 q2 -14 -18 -8 l0 38 l18 0 Z" /><glyph glyph-name="" unicode="&#x529f;" d="M171 132 q3 31 4 53 q0 1 3 4 q15 9 -28 15 q-11 3 -9 -10 q-1 -48 -1 -62 l-34 0 q-4 0 -3 -2 q1 -2 5 -2 l31 0 q-1 -69 -20 -98 q-20 -31 -73 -51 q15 -2 58 17 q63 23 67 132 l26 0 q1 -93 -11 -116 q-4 -7 -39 -5 q-12 1 -1 -3 q24 -8 23 -17 q-1 -10 13 -10 q17 1 28 11 q13 -2 18 125 q0 4 5 8 q4 3 4 6 q-12 15 -34 20 q-2 -1 -5 -8 q-4 -7 -5 -7 l-22 0 ZM122 159 q9 0 -4 11 q-16 13 -19 12 q-2 -1 -8 -10 q-6 -8 -7 -8 l-66 0 q-4 0 -3 -2 q1 -2 5 -2 l33 0 l0 -94 q-5 0 -17 -1 q-14 -1 -19 -2 q-1 0 -2 0 q-6 -1 -4 -8 q8 -36 16 -27 q2 1 2 1 q60 27 90 39 q12 5 -17 2 q-14 -1 -20 -1 l0 80 q-1 11 13 10 l27 0 Z" /><glyph glyph-name="" unicode="&#x52a9;" d="M66 164 q0 12 9 11 l18 0 l0 -45 l-27 0 l0 34 ZM66 125 l27 0 l0 -45 l-27 0 l0 45 ZM66 76 l27 0 l0 -44 l-27 -3 l0 47 ZM37 26 q-6 -1 -15 -1 q-8 -1 -9 -2 q2 -18 16 -34 q3 0 11 4 q12 7 93 36 q7 3 8 5 q1 2 -5 2 q-4 -1 -12 -2 l0 46 l0 5 l0 77 q0 2 4 5 q4 2 4 3 q-10 16 -30 22 q-2 0 -9 -8 q-4 -5 -5 -5 l-19 0 q-11 7 -23 9 q-10 3 -9 -3 l0 -159 ZM128 132 q-4 0 -4 -2 q2 -2 5 -3 l29 0 q0 -106 -57 -139 q-11 -7 -10 -8 q1 -2 14 3 q81 20 81 144 l18 0 q-3 -78 -4 -99 q0 -14 -5 -16 q-6 -3 -25 -2 q-8 1 -7 0 q0 -1 8 -5 q13 -5 15 -17 q1 -6 3 -7 q13 -3 27 4 q10 7 12 20 q3 27 4 113 q0 3 4 5 q3 2 3 5 q-9 14 -28 18 q-3 -1 -6 -8 q-3 -6 -5 -6 l-14 0 q2 35 3 54 q0 3 5 7 q12 7 -19 13 q-18 4 -15 -3 q0 -1 0 -2 q0 -12 -1 -69 l-31 0 Z" /><glyph glyph-name="" unicode="&#x5355;" d="M146 152 q21 25 38 36 q4 3 4 4 q-9 10 -41 14 q-2 0 -4 -15 q-4 -20 -9 -39 l-56 0 q-4 0 -16 6 q-19 9 -18 2 l0 -107 q0 -5 12 -3 q14 3 15 8 l0 10 l36 0 l0 -32 l-95 0 q-2 0 -2 -2 q2 -2 4 -2 l93 0 l0 -54 q1 -5 13 -4 q14 3 15 8 l0 50 l103 0 q4 1 2 4 q-11 13 -26 21 q-3 2 -11 -12 q-5 -9 -7 -9 l-61 0 l0 32 l37 0 l0 -7 q0 -6 12 -4 q16 3 19 8 l0 70 q0 2 4 5 q7 5 3 9 q-20 17 -28 19 q-3 1 -10 -10 q-5 -6 -6 -6 l-20 0 ZM72 200 q-6 1 -8 0 q-1 0 3 -2 q11 -6 14 -24 q3 -16 14 -16 q9 0 14 9 q5 8 0 16 q-10 15 -37 17 ZM135 139 q0 9 13 9 l24 0 l0 -36 l-37 0 l0 27 ZM71 139 q0 9 10 9 l26 0 l0 -36 l-36 0 l0 27 ZM71 108 l36 0 l0 -35 l-36 0 l0 35 ZM135 108 l37 0 l0 -35 l-37 0 l0 35 Z" /><glyph glyph-name="" unicode="&#x540d;" d="M119 172 q5 8 12 14 q5 3 5 6 q3 6 -34 12 q-2 0 -1 0 q-9 1 -11 -7 q-14 -57 -56 -100 q-15 -16 10 1 q26 18 44 36 q10 -4 11 -21 q-3 -19 20 -25 q-8 -8 -17 -15 q-4 -2 -5 -3 q-12 6 -16 3 q-1 0 -1 -6 q-1 -4 -1 -6 q-12 -10 -42 -24 q-14 -7 -14 -8 q1 -4 56 14 l0 -67 q-1 -5 7 -4 q3 0 4 0 q17 1 18 9 l0 12 l83 0 l0 -14 q-1 -7 8 -6 q1 0 2 0 q19 2 21 11 l-1 67 q1 2 4 4 q5 3 5 7 q-17 18 -37 19 q-2 0 -5 -8 q-3 -8 -5 -8 l-57 0 q47 30 87 82 q3 5 10 8 q5 3 7 5 q-13 20 -41 26 q-3 -1 -7 -8 q-3 -6 -5 -6 l-58 0 ZM180 167 q-24 -48 -48 -66 q7 30 -39 37 q6 7 17 22 q4 5 6 7 l64 0 ZM108 53 q2 1 6 4 q7 4 8 4 l69 0 l0 -64 l-83 0 l0 56 Z" /><glyph glyph-name="" unicode="&#x5417;" d="M216 166 q0 1 3 4 q7 6 7 9 q-14 17 -33 19 q-3 -1 -7 -8 q-3 -7 -5 -7 l-71 0 q-3 0 -1 -2 q1 -3 4 -3 l74 0 l-13 -99 l-32 0 l14 71 q0 1 2 3 q12 9 -19 13 q-1 0 -2 0 q-9 1 -10 -5 q0 -2 -1 -10 q-6 -51 -9 -60 q-10 -8 -3 -13 q13 -13 19 -12 q3 1 6 5 q4 4 6 4 l64 0 q-2 -41 -5 -52 q-2 -14 -9 -20 q-5 -3 -29 -4 q-17 0 -3 -3 q18 -6 20 -17 q1 -6 4 -7 q7 -2 22 3 q12 6 18 14 q8 10 12 74 q0 1 2 3 q5 3 5 6 q-12 16 -33 19 q-2 -1 -6 -6 q-4 -5 -5 -5 l14 86 ZM96 159 q0 2 3 5 q3 2 3 4 q-9 14 -27 16 q-4 -1 -8 -9 q-2 -4 -3 -4 l-11 0 q-1 0 -10 5 q-9 4 -10 4 q-6 3 -8 1 q-2 -3 -2 -12 l0 -127 q-1 -12 10 -8 q18 2 17 10 l0 15 l19 0 l0 -7 q0 -8 10 -5 q12 2 14 4 q3 2 3 8 l0 100 ZM50 154 q0 13 7 12 l12 0 l0 -102 l-19 0 l0 90 ZM192 35 q5 0 5 1 q1 1 -2 5 q-13 15 -21 14 q-3 -1 -9 -10 q-3 -5 -4 -5 l-66 0 q-4 0 -3 -3 q1 -2 5 -2 l95 0 Z" /><glyph glyph-name="" unicode="&#x5728;" d="M121 161 q3 7 11 27 q1 3 6 5 q5 2 4 5 q0 5 -28 11 q-6 2 -7 2 q-8 3 -11 -9 q-7 -33 -11 -41 l-74 0 q-2 -1 -1 -3 q1 -2 3 -2 l71 0 q-6 -19 -12 -31 q-1 -2 -1 -2 q-14 3 -12 -8 l0 -13 q-17 -36 -50 -69 q6 -5 50 34 l0 -93 q-1 -10 10 -7 q20 0 18 10 l0 16 l155 0 q7 0 7 1 q2 2 -2 6 q-19 18 -25 16 q-3 -1 -11 -12 q-6 -7 -7 -7 l-30 0 l0 76 l54 0 q7 0 8 2 q1 2 -4 7 q0 0 -1 1 q-13 14 -19 15 q-4 1 -11 -13 q-5 -7 -6 -7 l-21 0 l0 43 q0 1 3 4 q14 11 -26 11 q-10 1 -9 -10 l0 -48 l-55 0 l0 23 q7 10 22 36 q6 13 10 19 l122 0 q5 0 6 1 q1 2 -2 5 q-15 18 -27 21 q-4 0 -12 -14 q-5 -9 -6 -9 l-79 1 ZM87 73 l55 0 l0 -76 l-55 0 l0 76 Z" /><glyph glyph-name="" unicode="&#x5bb6;" d="M146 172 q13 13 5 23 q-5 7 -24 10 q-27 3 -23 -3 q14 -8 14 -22 q-1 -6 1 -8 l-60 0 q-14 24 -15 12 q1 -16 -14 -27 q-9 -7 -9 -15 q2 -10 14 -13 q12 -2 19 6 q8 13 6 32 l142 0 q1 -2 -4 -16 q-1 0 -4 1 q-3 1 -5 1 q-1 0 -4 -5 q-6 -12 -10 -12 l-115 0 q-4 0 -3 -2 q2 -3 6 -3 l44 0 q-19 -25 -81 -53 q-16 -8 28 2 q30 8 49 18 q-24 -32 -84 -65 q34 -5 103 40 q-30 -49 -103 -79 q-14 -7 16 0 q23 6 45 14 q30 13 49 31 q3 -14 -1 -27 q-2 -7 -10 -10 q-6 -2 -28 -3 q-9 0 -9 -1 q-1 -2 7 -4 q13 -3 18 -18 q3 -6 5 -6 q46 1 50 49 q1 27 -10 56 q3 2 8 3 q11 -68 53 -91 q8 -5 10 4 q2 4 3 5 q6 5 20 12 q7 3 4 4 q-67 21 -83 67 q25 11 51 14 q8 2 9 3 q-7 15 -35 26 q-2 0 -7 -6 q-15 -21 -39 -34 q-16 18 -30 22 q20 12 34 23 q6 4 9 4 l60 0 q5 2 0 6 q-8 7 -15 12 q9 5 30 5 q13 0 15 2 q-9 18 -39 29 q-1 0 -4 -6 q-5 -7 -7 -7 l-52 0 Z" /><glyph glyph-name="" unicode="&#x5df2;" d="M192 168 q0 1 3 3 q5 5 5 9 q-11 15 -38 21 q-2 0 -7 -7 q-5 -9 -8 -9 l-116 0 q-4 -2 4 -5 l124 0 l0 -65 l-92 0 l0 16 q0 0 2 2 q11 10 -19 14 q-15 3 -14 -12 l0 -88 q-1 -42 9 -50 q8 -11 51 -14 q66 0 96 2 q42 3 49 23 q1 5 -7 10 q-15 11 -13 30 q0 6 -2 6 q-2 -1 -4 -9 q-8 -30 -25 -33 q-32 -6 -80 -4 q-28 1 -35 8 q-8 5 -8 25 l0 70 l92 0 l0 -8 q0 -11 12 -10 q24 1 21 14 l0 61 Z" /><glyph glyph-name="" unicode="&#x5e2e;" d="M95 188 q1 3 6 5 q3 3 3 4 q1 4 -18 7 q-5 1 -7 1 q-12 3 -10 -8 l0 -23 l-39 0 q-4 0 -2 -2 q4 -2 9 -2 l32 0 l0 -25 l-33 0 q-4 0 -2 -2 q3 -3 7 -3 l28 0 q-2 -21 -4 -27 l-45 0 q-6 0 -4 -2 q3 -2 9 -2 l39 0 q-8 -33 -44 -52 q-8 -4 -7 -5 q0 0 9 2 q22 6 33 13 l0 -70 q-1 -9 9 -8 q18 2 17 11 l0 47 q0 7 9 7 l24 0 l0 -79 q1 -7 10 -7 q20 2 18 9 l0 77 l39 0 l0 -27 q0 -18 -27 -15 q-6 0 -6 -1 q0 0 6 -2 q13 -5 16 -16 q2 -7 9 -6 q32 4 31 21 l0 35 q0 2 5 5 q4 2 4 3 q-9 15 -31 22 q-3 0 -8 -8 q-4 -6 -5 -6 l-33 0 l0 13 q1 3 4 7 q2 3 2 4 q0 4 -24 6 q-11 2 -10 -6 l0 -24 l-29 0 q-20 10 -25 11 q24 16 30 39 l62 0 l0 -33 q-1 -9 9 -7 q20 1 18 11 l0 91 q0 10 9 10 l14 0 q-2 -20 -8 -38 q23 -14 21 -29 q-1 -13 -21 -12 q-4 0 -4 -1 q0 0 4 -3 q7 -4 8 -13 q1 -8 9 -6 q32 5 33 29 q-1 24 -43 37 q10 14 25 24 q3 2 9 3 q7 2 7 4 q-9 13 -30 21 q-2 0 -7 -7 q-5 -5 -6 -5 l-18 0 q-31 17 -29 5 l0 -76 q-17 17 -23 17 q-4 0 -11 -11 q-5 -7 -6 -7 l-21 0 q3 12 4 27 l36 0 q13 0 12 2 q-8 12 -20 16 q-4 0 -9 -8 q-4 -5 -5 -5 l-14 0 l0 25 l38 0 q13 0 11 2 q-9 12 -18 16 q-3 0 -9 -8 q-4 -6 -5 -6 l-17 0 l0 14 Z" /><glyph glyph-name="" unicode="&#x60f3;" d="M83 191 q0 1 3 4 q12 8 -18 12 q-16 3 -14 -10 l0 -39 l-39 0 q-3 0 -2 -3 q2 -2 5 -2 l35 0 q-11 -51 -41 -83 q-2 -11 42 30 l0 -40 q-3 -12 18 -8 q12 1 11 11 l0 66 q7 -6 7 -23 q0 -8 1 -10 q8 -12 22 -2 q12 11 3 24 q-10 13 -33 17 l0 18 l31 0 q4 0 5 2 q1 1 -1 4 q-16 16 -20 16 q-2 -1 -8 -8 q-6 -7 -7 -7 l0 31 ZM226 172 q0 2 3 5 q5 5 4 8 q-15 14 -31 16 q-3 -1 -6 -7 q-2 -5 -5 -5 l-36 0 q-17 5 -24 7 q-6 2 -7 0 q-1 0 -1 -10 l0 -115 q-2 -14 11 -11 q21 2 19 8 l0 2 l44 0 l0 -4 q-1 -7 14 -5 q17 0 15 19 l0 92 ZM153 176 q-1 10 9 9 l35 0 l0 -33 l-44 0 l0 24 ZM197 147 l0 -32 l-44 0 l0 32 l44 0 ZM197 110 l0 -35 l-44 0 l0 35 l44 0 ZM100 31 q0 2 3 5 q11 7 -24 10 q-8 3 -7 -10 l0 -28 q0 -18 7 -25 q7 -6 28 -6 q8 -1 25 -1 q16 0 22 1 q39 1 45 17 q1 5 -7 10 q-13 9 -14 20 q-1 8 -3 8 q-2 -1 -4 -10 q-1 -25 -42 -23 q-18 0 -23 1 q-6 2 -6 9 l0 22 ZM247 7 q-1 11 -18 22 q-29 17 -29 8 q15 -15 16 -31 q1 -3 1 -5 q4 -10 16 -8 q14 4 14 14 ZM42 39 q1 -10 -16 -26 q-8 -8 -9 -11 q-6 -16 13 -19 q18 -1 26 16 q5 11 0 25 q-9 22 -14 15 ZM116 58 q10 -9 10 -28 q0 -11 3 -13 q12 -9 22 2 q8 12 0 26 q-18 17 -35 13 Z" /><glyph glyph-name="" unicode="&#x6210;" d="M153 149 q-1 34 -1 45 q15 0 15 -22 q2 -16 20 -9 q14 8 6 23 q-6 10 -41 14 q0 6 -25 6 q-10 2 -7 -10 q2 -25 3 -47 l-58 0 q-13 5 -22 7 q-8 2 -10 1 q-2 -1 -1 -7 q0 0 0 -4 q2 -27 3 -54 q1 -36 -5 -63 q-5 -24 -19 -45 q-6 -9 3 -2 q13 10 24 21 q5 7 13 22 q14 -2 18 -14 q2 -7 6 -8 q7 -2 18 2 q9 4 12 10 q6 16 8 68 q1 3 5 7 q3 3 3 5 q-11 16 -31 21 q-3 -1 -6 -7 q-3 -5 -5 -5 l-17 0 q0 9 0 28 q-3 14 14 12 l48 0 q3 -64 20 -106 q-22 -30 -53 -47 q-20 -14 18 3 q25 12 46 27 q21 -24 51 -37 q27 -10 35 2 q2 4 -4 14 q-9 17 -8 29 q0 2 1 7 q2 20 -4 7 q0 -1 -1 -3 q-9 -18 -15 -21 q-12 -2 -32 22 q18 29 26 49 q5 12 12 17 q3 2 3 3 q1 3 -5 5 q-3 2 -23 9 q-7 3 -9 2 q-2 -1 -3 -9 q-4 -24 -15 -50 q-6 19 -11 72 q0 4 0 5 l70 0 q6 0 6 2 q1 2 -4 7 q-12 16 -20 17 q-3 0 -12 -12 q-6 -9 -7 -9 l-33 0 ZM84 99 q2 -64 -11 -67 q-9 -4 -20 -1 q9 27 8 68 l23 0 Z" /><glyph glyph-name="" unicode="&#x6392;" d="M197 190 q0 1 2 4 q11 10 -21 11 q-11 2 -10 -8 l0 -216 q-1 -11 11 -9 q22 2 18 12 l0 61 l46 0 q5 0 6 2 q1 1 -2 5 q-16 16 -25 19 q-3 -1 -10 -14 q-4 -7 -5 -7 l-10 0 l0 49 l40 0 q3 0 4 2 q1 2 -1 4 q-15 16 -22 17 q-3 -1 -9 -12 q-3 -6 -4 -6 l-8 0 l0 45 l41 0 q5 0 6 1 q1 2 -1 5 q-16 19 -23 17 q-2 -1 -10 -13 q-4 -6 -4 -6 l-9 0 l0 37 ZM78 192 q0 1 2 2 q9 9 -19 11 q-12 2 -10 -10 l0 -47 l-32 0 q-4 0 -3 -2 q2 -2 7 -2 l28 0 l0 -43 q-9 -3 -22 -6 q-14 -4 -15 -7 q4 -22 11 -30 q5 -1 17 10 q6 4 9 7 l0 -58 q0 -9 -4 -12 q-4 -2 -19 -2 q-6 0 -6 -2 q0 -1 6 -1 q8 -2 12 -13 q4 -11 10 -10 q30 4 28 25 l0 92 q2 1 6 4 q14 11 23 16 q3 2 3 3 q-1 1 -5 0 q-9 -3 -27 -8 l0 35 l29 0 q3 0 4 1 q1 1 -1 3 l16 0 l0 -45 l-29 0 q-4 0 -2 -3 q2 -2 6 -2 l25 0 l0 -48 l-34 0 q-4 0 -3 -2 q2 -3 6 -3 l31 0 l0 -62 q0 -9 9 -8 q18 4 17 10 l0 205 q0 0 1 2 q8 10 -18 12 q-10 1 -9 -7 l0 -44 l-19 0 q-1 1 -3 3 q-8 8 -12 8 q-2 0 -8 -11 q-3 -5 -3 -5 l-3 0 l0 44 Z" /><glyph glyph-name="" unicode="&#x6562;" d="M177 146 q9 23 15 42 q2 5 6 8 q2 2 2 4 q0 5 -31 9 q-5 1 -6 -1 q-2 -2 -3 -14 q-2 -31 -6 -47 q-2 1 -8 6 q-12 12 -16 12 q-1 0 -7 -8 q-7 -11 -9 -11 l-12 0 l6 25 q1 4 7 8 q4 2 4 4 q1 5 -11 13 q-13 8 -18 6 q-1 -1 -4 -5 q-5 -7 -7 -7 l-47 0 q-3 0 -2 -2 q1 -2 4 -2 l50 0 l-9 -40 l-61 0 q-3 0 -2 -2 q2 -2 6 -2 l19 0 l0 -106 q-7 -1 -16 -2 q-6 -1 -7 -2 q2 -17 11 -30 q3 -1 23 7 q28 11 51 18 l0 -43 q-1 -6 7 -5 q18 1 17 11 l0 46 q47 18 24 16 q-2 0 -5 -1 q-11 -3 -19 -4 l0 22 q19 16 34 37 q2 -41 13 -71 q-19 -33 -46 -55 q12 -6 56 35 q12 -16 33 -36 q3 -2 3 -2 q5 -5 11 6 q2 4 4 6 q3 3 9 7 q11 6 0 9 q-25 12 -45 34 q16 40 24 73 q1 6 7 11 q2 2 2 3 q-1 5 -22 15 l38 0 q3 0 3 2 q0 1 -4 5 q-1 1 -3 3 q-14 15 -19 14 q-2 0 -7 -11 q-4 -8 -5 -8 l-32 0 ZM64 134 q0 9 11 8 l23 0 l0 -30 l-34 0 l0 22 ZM124 132 q0 11 6 10 l23 0 q-8 -38 -29 -66 l0 56 ZM194 141 q-4 -51 -15 -79 q-12 21 -19 49 q4 5 15 30 l19 0 ZM64 107 l34 0 l0 -28 l-34 0 l0 28 ZM64 74 l35 0 l0 -30 l-35 -5 l0 35 Z" /><glyph glyph-name="" unicode="&#x662f;" d="M193 178 q0 3 5 7 q4 2 5 4 q-7 17 -36 23 q-3 -1 -7 -8 q-4 -7 -6 -7 l-59 0 q-5 3 -22 8 q-10 3 -11 1 q-2 -2 -1 -13 l0 -88 q-1 -6 6 -5 q27 0 25 11 l0 9 l67 0 l0 -10 q-1 -6 8 -5 q24 0 26 11 l0 62 ZM92 177 q-1 17 14 16 l53 0 l0 -32 l-67 0 l0 16 ZM92 156 l67 0 l0 -32 l-67 0 l0 32 ZM237 86 q4 0 5 3 q0 3 -4 6 q-15 15 -24 18 q-3 0 -9 -11 q-6 -12 -9 -12 l-187 0 q-3 -3 5 -4 l97 0 l0 -73 q-21 11 -31 25 q6 15 14 24 q3 3 3 4 q3 7 -26 11 q-3 1 -4 1 q-11 4 -11 -11 q-7 -52 -41 -82 q-9 -8 4 -3 q13 5 26 15 q19 14 30 31 q14 -31 46 -42 q37 -9 93 -12 q11 -1 11 7 q1 2 1 3 q5 13 14 20 q3 3 3 5 q0 2 -28 0 q-47 -3 -71 0 l0 37 l67 0 q7 1 3 8 q-18 21 -24 20 q-3 0 -10 -14 q-6 -9 -7 -9 l-29 0 l0 25 q-2 10 9 10 l84 0 Z" /><glyph glyph-name="" unicode="&#x699c;" d="M177 174 q11 7 10 18 q-1 11 -14 15 q-6 2 -16 3 q-10 0 -10 -1 q0 -1 2 -3 q8 -7 8 -15 q-1 -4 1 -11 q2 -5 5 -6 l-55 0 q-4 0 -2 -2 q4 -2 8 -2 l69 0 q2 -8 -7 -48 l-50 0 q-7 12 -14 16 q-1 0 -1 -5 q-1 -14 -10 -20 q-7 -6 -3 -11 q-10 11 -24 15 l0 31 l30 0 q15 0 14 3 q-9 12 -23 17 q-2 0 -8 -9 q-5 -7 -6 -7 l-7 0 l0 42 q1 2 4 5 q2 2 2 4 q0 4 -24 6 q-10 2 -8 -8 l0 -49 l-32 0 q-4 0 -3 -2 q3 -2 7 -2 l28 0 q-6 -51 -31 -97 q-6 -11 -5 -12 q1 -2 8 5 q15 16 28 36 l0 -91 q0 -12 8 -11 q19 3 18 14 l0 116 q8 -8 6 -25 q-1 -14 9 -17 q12 -2 19 9 l30 0 q-3 -72 -50 -90 q-10 -4 -9 -6 q1 -1 12 2 q60 17 71 65 l28 0 q-1 -19 -4 -33 q-2 -11 -30 -9 q-5 0 -5 -1 q0 -1 6 -3 q9 -3 11 -15 q1 -9 9 -9 q28 -1 33 19 q6 15 8 38 q0 1 4 4 q5 4 5 7 q-8 13 -28 18 q-2 0 -8 -7 q-3 -4 -4 -4 l-24 0 q1 8 3 16 q3 8 12 8 l58 0 q9 0 9 2 q-8 12 -24 19 q-2 0 -8 -9 q-6 -8 -7 -8 l-31 0 q9 2 9 17 q-3 16 -22 21 l45 0 q-1 -4 -3 -11 q-2 -7 -2 -8 q-2 -5 -1 -6 q1 0 4 3 q12 11 29 10 q1 0 2 0 q7 -3 10 0 q-4 18 -31 29 q-3 0 -7 -7 q-4 -5 -5 -5 l-21 0 q18 21 32 29 q3 2 3 3 q2 3 -23 16 l39 0 q13 0 13 3 q-10 15 -22 19 q-3 0 -10 -10 q-6 -8 -8 -8 l-29 0 ZM130 163 q0 -1 2 -3 q9 -8 8 -19 q-1 -10 7 -13 q11 -3 17 4 q7 10 -3 22 q-4 4 -14 7 q-13 4 -17 2 ZM150 117 q10 -8 7 -18 q0 0 0 -2 q-2 -14 5 -18 l-53 0 q1 4 -2 9 q24 4 20 29 l23 0 Z" /><glyph glyph-name="" unicode="&#x6d3b;" d="M174 172 q9 1 29 2 q11 1 16 1 q1 0 4 0 q22 -3 -15 27 q-4 5 -18 -2 q-44 -20 -90 -27 q6 21 -1 11 q-36 -95 -53 -112 q-8 -7 -19 -5 q-9 1 -1 -3 q15 -7 15 -14 q1 -15 -5 -29 q-2 -5 -3 -7 q-4 -16 10 -26 q16 -8 25 6 q4 6 1 34 q-4 24 -2 34 q5 30 15 56 l60 0 l0 -43 l-9 0 q-7 1 -20 6 q-7 3 -9 1 q-3 -1 -3 -7 l0 -87 q-1 -10 11 -9 q18 2 18 10 l0 18 l55 0 l0 -15 q-1 -16 15 -11 q12 3 15 6 q2 2 2 10 l0 60 q0 1 3 4 q3 4 3 6 q-7 16 -31 22 q-3 -1 -7 -8 q-4 -6 -6 -6 l-5 0 l0 44 l62 0 q7 0 7 1 q1 2 -3 6 q-17 18 -25 18 q-3 0 -10 -13 q-4 -7 -5 -7 l-26 0 l0 48 ZM38 197 q14 -9 13 -25 q0 -6 1 -9 q13 -21 31 2 q8 19 -15 30 q-9 3 -23 4 q-12 1 -7 -2 ZM99 170 l43 1 l0 -48 l-59 0 l16 47 ZM19 143 q10 -6 11 -22 q0 -2 0 -3 q3 -18 19 -14 q16 9 11 26 q-4 9 -19 14 q-27 6 -22 -1 ZM129 57 q-1 14 11 13 l45 0 l0 -58 l-56 0 l0 45 Z" /><glyph glyph-name="" unicode="&#x6d4b;" d="M233 186 q0 2 2 5 q2 2 2 4 q-1 4 -24 5 q-9 1 -8 -10 l0 -171 q1 -13 -3 -12 q-15 -5 -31 -1 q-6 23 -49 31 q8 24 8 78 q0 21 1 32 q0 3 2 6 q1 2 1 3 q-3 5 -21 4 q-6 1 -5 -9 q0 -21 -1 -50 q0 -18 0 -26 q0 -62 -52 -91 q-7 -4 -6 -5 q3 0 11 4 q41 16 61 51 q16 -9 18 -22 q0 -19 11 -23 q15 -2 21 13 q19 -2 22 -17 q1 -10 13 -9 q29 4 27 26 l0 184 ZM31 199 q-9 1 -3 -4 q2 -1 2 -2 q5 -6 5 -19 q0 -12 6 -15 q11 -5 19 3 q7 10 2 22 q-5 13 -31 15 ZM163 171 q0 2 3 5 q3 3 3 5 q-6 11 -23 16 q-3 0 -7 -6 q-4 -5 -6 -5 l-29 0 q-12 5 -20 7 q-9 2 -8 -7 l0 -5 q-25 -76 -39 -104 q-7 -13 -20 -14 q-12 -1 -2 -5 q3 -1 4 -2 q11 -9 6 -27 q-1 -4 -3 -11 q-3 -12 -3 -17 q-1 -13 12 -15 q17 0 22 12 q3 10 -3 39 q1 -1 0 2 q-3 19 2 41 q13 55 24 85 l0 -116 q-1 -10 7 -10 q17 0 17 12 l0 119 q-1 13 11 12 l28 0 l0 -131 q-1 -9 6 -8 q19 0 18 11 l0 117 ZM196 157 q0 3 2 5 q1 3 1 4 q-1 3 -20 4 q-6 0 -5 -10 l0 -116 q-1 -9 7 -8 q15 0 15 11 l0 110 ZM20 143 q-14 1 -7 -4 q2 -1 2 -2 q5 -6 4 -16 q0 -10 4 -13 q10 -8 18 0 q8 9 3 22 q-6 10 -24 13 Z" /><glyph glyph-name="" unicode="&#x73b0;" d="M221 175 q0 1 3 3 q4 4 5 6 q-12 15 -33 20 q-3 -1 -8 -8 q-3 -5 -4 -5 l-38 0 q-7 -1 -18 5 q-2 1 -4 2 q-8 3 -9 1 q-1 0 -1 -10 l0 -127 q-1 -10 10 -7 q17 4 16 16 l0 108 q0 1 0 2 q-2 6 9 5 l44 0 l0 -105 q-8 3 -19 3 q4 28 6 67 q0 2 2 5 q8 9 -22 9 q-9 2 -9 -10 q2 -80 -16 -111 q-17 -32 -79 -58 q-17 -9 19 2 q28 9 46 19 q32 21 42 41 l0 -41 q0 -13 7 -17 q6 -5 30 -6 q16 0 22 1 q31 5 29 20 q0 2 -5 6 q-12 9 -11 27 q1 8 0 8 q-1 0 -3 -7 q-9 -32 -23 -32 q-22 -2 -20 11 l0 51 q0 1 2 4 q2 3 2 4 l0 -11 q0 -8 9 -6 q20 2 19 13 l0 102 ZM107 181 q6 0 6 1 q1 1 -3 5 q-14 14 -19 14 q-4 0 -12 -11 q-3 -5 -4 -5 l-59 0 q-3 0 -1 -2 q1 -3 4 -3 l28 0 l0 -64 l-33 0 q-3 0 -2 -2 q2 -2 5 -2 l30 0 l0 -60 q-6 -1 -16 -3 q-21 -2 -16 -11 q9 -26 12 -23 q2 -1 18 9 q15 8 61 33 q15 8 -29 0 l0 55 l23 0 q6 0 7 1 q1 1 -2 4 q-9 12 -16 13 q-2 0 -6 -6 q-4 -6 -6 -7 l0 55 q-1 10 9 9 l21 0 Z" /><glyph glyph-name="" unicode="&#x7406;" d="M229 174 q0 1 4 4 q3 2 3 3 q-4 16 -31 22 q-4 0 -8 -9 q-2 -4 -3 -4 l-61 0 q-5 0 -16 6 q1 0 -2 1 q-7 4 -9 3 q-2 -1 -2 -7 l0 -8 q-3 2 -8 5 q-12 9 -17 8 q-2 0 -9 -11 q-3 -6 -4 -6 l-47 0 q-4 0 -3 -2 q1 -2 5 -2 l19 0 l0 -62 l-25 0 q-4 0 -4 -2 q2 -3 6 -3 l23 0 l0 -65 q-6 -2 -14 -3 q-18 -2 -13 -13 q6 -25 11 -26 q2 0 9 5 q9 11 70 46 q14 8 -36 -4 l0 60 l37 0 l0 -29 q-1 -12 11 -8 q16 2 14 9 l0 9 l22 0 l0 -42 l-50 0 q-3 0 -2 -3 q1 -2 4 -2 l48 0 l0 -46 l-71 0 q-2 0 -1 -3 q1 -2 4 -2 l155 0 q9 0 10 1 q1 2 -4 6 q-18 17 -25 17 q-3 -1 -9 -12 q-5 -7 -6 -7 l-27 0 l0 46 l55 0 q5 0 5 2 q1 1 -2 5 q-18 16 -24 16 q-2 -1 -8 -10 q-6 -8 -7 -8 l-19 0 l0 43 l22 0 l0 -8 q-1 -12 11 -8 q21 3 19 14 l0 84 ZM177 178 q-1 9 7 8 l15 0 l0 -43 l-22 0 l0 35 ZM129 177 q-2 10 9 9 l13 0 l0 -44 l-22 0 l0 35 ZM104 178 l0 -63 q-1 1 -6 5 q-14 10 -18 10 q-2 1 -8 -8 q-4 -6 -5 -6 l0 52 q-1 10 8 9 l29 1 ZM177 138 l22 0 l0 -42 l-22 0 l0 42 ZM129 138 l22 0 l0 -42 l-22 0 l0 42 Z" /><glyph glyph-name="" unicode="&#x751f;" d="M152 188 q0 1 2 3 q13 9 -22 10 q-9 1 -11 -2 q-2 -1 -1 -13 l0 -51 l-36 0 q4 11 11 25 q2 3 5 7 q4 3 4 5 q0 4 -24 9 q-5 1 -6 1 q-11 2 -12 -1 q-2 -1 -3 -13 q-2 -52 -32 -102 q11 -8 56 65 l37 0 l0 -63 l-62 0 q-3 0 -2 -2 q1 -3 4 -3 l60 0 l0 -70 l-98 0 q-3 0 -2 -2 q2 -2 5 -2 l210 0 q7 0 8 2 q1 1 -3 6 q-12 15 -19 16 q-3 0 -11 -12 q-6 -8 -7 -8 l-51 0 l0 70 l63 0 q4 0 4 1 q1 2 -1 5 q-14 19 -21 19 q-3 0 -9 -11 q-6 -9 -8 -9 l-28 0 l0 63 l70 0 q5 0 6 1 q0 1 -3 6 q-15 18 -20 18 q-3 0 -11 -12 q-6 -9 -7 -9 l-35 0 l0 53 Z" /><glyph glyph-name="" unicode="&#x7684;" d="M165 149 q6 10 14 31 q1 3 5 6 q4 3 4 5 q-9 10 -39 14 q-2 -2 -2 -12 q0 -17 -3 -29 q0 -1 -1 -4 q-12 -47 -24 -69 l0 40 q0 2 4 5 q4 2 4 4 q-7 14 -30 21 q-2 0 -6 -6 q-4 -7 -6 -7 l-17 0 q1 3 4 8 q8 17 15 27 q1 3 6 6 q4 3 4 6 q0 3 -13 6 q-20 4 -26 2 q-3 -1 -2 -14 q1 -20 1 -40 q-6 0 -16 4 q-12 4 -12 -2 l0 -160 q1 -5 8 -5 q18 1 19 12 l0 15 l36 0 l0 -13 q-1 -6 11 -6 q16 0 16 10 l0 32 l0 51 q6 5 18 18 q13 -6 14 -32 q1 -22 12 -22 q12 0 18 10 q6 12 0 23 q-11 15 -42 24 q15 21 24 37 l36 0 q1 -53 1 -77 q-1 -49 -7 -55 q-5 -10 -37 -8 q-8 0 -8 -1 q0 -1 9 -4 q13 -4 16 -17 q2 -8 10 -8 q20 1 33 9 q8 7 10 20 q2 10 3 51 q0 37 0 74 q0 4 6 8 q5 4 5 6 q-18 17 -32 20 q-3 1 -8 -8 q-4 -6 -6 -6 l-29 0 ZM56 135 q1 7 8 8 l28 0 l0 -55 l-36 0 l0 47 ZM56 84 l36 0 l0 -66 l-36 0 l0 66 Z" /><glyph glyph-name="" unicode="&#x7b2c;" d="M166 176 q7 12 16 21 q4 3 4 5 q-9 8 -37 9 q-2 -1 -3 -6 q-1 -13 -7 -28 q-4 5 -18 15 q-5 3 -13 -9 q-5 -7 -7 -7 l-30 0 q7 7 11 14 q2 3 8 6 q5 3 4 6 q-1 3 -13 6 q-18 4 -24 2 q-2 -1 -4 -10 q0 -18 -31 -62 q-7 -8 12 4 q12 9 29 24 q3 4 5 5 q12 -4 12 -31 q0 -7 6 -11 l-43 0 q-2 0 -2 -2 q2 -3 4 -3 l70 0 l0 -30 l-37 0 q-5 0 -16 5 q-12 7 -13 -1 q-1 -8 -5 -32 q-1 -5 -4 -9 q-2 -3 -2 -4 q0 -3 11 -6 q12 -4 15 -3 q1 0 3 4 q3 6 6 6 l14 0 q-12 -32 -63 -63 q-8 -5 -6 -6 q3 0 15 4 q36 12 82 48 l0 -59 q0 -6 8 -6 q19 -1 19 14 l0 68 l56 0 q-1 -22 -6 -26 q-5 -5 -23 -4 q-8 0 -7 -1 q0 -1 7 -3 q8 -3 10 -13 q-3 -10 18 -7 q24 3 27 41 q0 2 4 5 q4 2 4 5 q-4 13 -28 22 q-3 -1 -6 -7 q-3 -7 -7 -7 l-49 0 l0 30 l39 0 q-1 -8 8 -7 q19 1 20 12 l0 20 q0 2 3 5 q3 3 3 5 q-1 5 -20 15 q4 10 -1 18 q-5 7 -16 12 q-2 1 -4 2 l64 0 q4 0 4 3 q0 2 -4 6 q-5 6 -19 14 q-5 3 -12 -9 q-5 -9 -9 -9 l-32 0 ZM97 129 q14 9 8 23 q-5 10 -25 19 l57 0 q-9 -22 -27 -42 l-13 0 ZM118 129 q22 15 43 40 q6 -3 9 -17 q2 -14 8 -18 l-4 -5 l-56 0 ZM181 124 l0 -30 l-39 0 l0 24 l0 6 l39 0 ZM72 83 q0 7 15 6 l28 0 l0 -31 l-46 0 l3 25 Z" /><glyph glyph-name="" unicode="&#x884c;" d="M240 114 q8 0 9 2 q2 2 -3 7 q-15 14 -21 16 q-2 0 -11 -13 q-5 -7 -6 -7 l-106 0 q-4 0 -2 -2 q3 -2 7 -2 l68 0 l0 -98 q0 -14 -30 -15 q-7 0 -7 -1 q0 -1 3 -1 q17 -4 19 -16 q0 -1 0 -2 q1 -10 15 -8 q18 2 24 8 q6 5 6 19 l0 99 q-2 16 11 14 l24 0 ZM88 206 q-10 10 -14 1 q-2 -2 -7 -10 q-22 -31 -40 -51 q-1 -1 -3 -3 q-18 -20 6 -5 q22 14 47 34 q8 7 11 9 q4 3 12 5 q4 0 5 1 q2 2 -17 19 ZM84 103 q0 2 3 4 q4 4 -4 7 q9 12 15 18 q6 6 11 8 q3 1 3 2 q2 5 -19 16 q-11 8 -16 -5 q-26 -48 -48 -74 q-12 -14 -13 -17 q-1 -3 8 3 q15 9 33 23 l0 -106 q-1 -5 12 -4 q15 0 15 10 l0 115 ZM226 176 q7 0 8 2 q1 2 -4 6 q-1 1 -3 3 q-15 12 -19 12 q-3 0 -12 -14 q-3 -5 -3 -5 l-72 0 q-4 0 -4 -2 q2 -2 6 -2 l103 0 Z" /><glyph glyph-name="" unicode="&#x8981;" d="M241 185 q6 0 7 2 q1 3 -2 6 q-17 13 -27 15 q-3 0 -13 -13 q-4 -5 -4 -5 l-34 0 l-151 0 q-3 0 -2 -2 q1 -3 4 -3 l70 0 l0 -34 l-21 0 q-2 1 -9 5 q-5 3 -8 4 q-11 5 -11 -3 l0 -68 q-1 -10 11 -9 q20 0 18 9 l0 6 l33 0 q-1 -2 -3 -6 q-9 -16 -16 -27 l-73 0 q-3 0 -1 -3 q2 -2 5 -2 l68 0 q-8 -16 -18 -28 q-3 -4 -3 -5 q-2 -2 16 -3 q24 -3 46 -6 q-20 -16 -95 -37 q-9 -3 -9 -4 q1 -1 10 0 q77 7 122 32 q27 -10 46 -27 q11 -9 19 -9 q10 1 12 12 q2 11 -6 19 q-12 17 -50 23 q6 9 12 19 q2 5 4 7 q5 8 15 7 l37 0 q7 0 8 2 q1 1 -4 6 q-17 16 -25 17 q-6 0 -16 -20 l-83 0 q7 11 17 17 q4 2 4 3 q1 4 -19 13 l65 0 l0 -5 q-1 -10 14 -7 q19 2 16 14 l0 35 q0 1 3 4 q6 6 6 8 q-7 13 -34 20 q-3 -1 -9 -10 q-2 -3 -2 -3 l-16 0 l0 19 q-2 17 12 15 l64 0 ZM137 185 l0 -34 l-21 0 l0 18 q-2 19 14 16 l7 0 ZM116 146 l21 0 l0 -46 l-21 0 l0 46 ZM69 134 q-2 14 10 12 l10 0 l0 -46 l-20 0 l0 34 ZM187 146 l0 -46 l-22 0 l0 46 l22 0 ZM154 57 q-9 -17 -18 -29 q-14 2 -29 2 q-8 0 -8 1 q-1 1 3 6 q8 10 15 20 l37 0 Z" /><glyph glyph-name="" unicode="&#x8bd5;" d="M41 194 q-9 0 -9 -1 q0 -2 7 -8 q7 -5 8 -20 q0 -11 3 -14 q11 -12 25 0 q11 13 2 28 q-7 10 -34 15 q-1 0 -2 0 ZM35 24 q0 -5 -5 -10 q-4 -4 -4 -8 q0 -6 14 -21 q6 -7 12 2 q43 52 44 59 q0 2 -23 -10 q-6 -4 -9 -5 l0 65 q0 3 5 7 q5 4 4 8 q-16 14 -31 16 q-4 -1 -6 -8 q-3 -5 -5 -5 l-24 0 q-3 0 -2 -3 q2 -2 5 -2 l25 0 l0 -85 ZM230 133 q4 0 5 2 q1 2 -2 5 q-6 6 -16 14 q8 5 5 15 q-2 16 -36 14 q0 2 2 4 q1 1 1 3 q-2 5 -27 5 q-11 2 -9 -9 q1 -22 1 -49 l-71 0 q-3 0 -1 -2 q1 -2 4 -2 l68 0 q1 -28 2 -40 q-1 0 -3 2 q-11 9 -15 8 q-2 0 -6 -7 q-4 -8 -7 -8 l-32 0 q-3 0 -1 -2 q2 -2 5 -2 l11 0 l0 -63 q-7 -1 -15 -2 q-5 -1 -8 -1 q-11 -1 -7 -10 q5 -10 6 -14 q2 -9 10 -3 q1 1 1 1 q57 28 71 33 q10 -30 29 -44 q23 -15 39 -12 q8 4 1 19 q-7 12 0 40 q1 3 1 3 q-2 1 -8 -9 q-9 -14 -14 -15 q-8 -1 -17 15 q-13 34 -14 111 l47 0 ZM183 138 q0 30 0 41 q13 3 15 -16 q0 -5 1 -7 q1 -4 7 -5 q-5 -8 -6 -13 l-17 0 ZM133 78 q-1 8 7 7 l16 0 q3 -32 9 -56 l-32 -4 l0 53 Z" /></font>
</defs>
</svg>
